<svg xmlns="http://www.w3.org/2000/svg" xmlns:xlink="http://www.w3.org/1999/xlink" width="137" height="42"><defs><path id="a" d="M.413.264h10.785v15.271H.413z"/><path id="c" d="M.058.076h10.744v14.498H.058z"/><path id="e" d="M0 .264h37.16V40.39H0z"/></defs><g fill="none" fill-rule="evenodd"><path fill="#000" d="M53.645 16.328c3.748 0 6.214-2.265 6.635-6.054h-3.308c-.246 1.596-1.177 3.1-2.9 3.303-1.478.174-2.776-.571-3.41-1.908-.37-.778-.516-1.65-.555-2.504-.042-.922.026-1.871.301-2.756.432-1.39 1.46-2.475 2.966-2.58.859-.06 1.717.181 2.363.762.717.643 1.089 1.582 1.235 2.516h3.308c-.249-2.227-1.35-4.326-3.426-5.333-1.981-.961-4.595-.922-6.587-.009-1.94.889-3.128 2.7-3.549 4.75-.455 2.219-.28 4.822.914 6.793 1.101 1.82 3.033 2.79 5.112 2.98.3.027.6.04.9.04m13.104-2.626c-1.052 0-1.774-.707-2.004-1.702-.229-.992-.157-2.326.604-3.088.647-.65 1.799-.728 2.549-.21.893.614 1.04 1.885.927 2.877-.133 1.157-.832 2.123-2.076 2.123m0-7.938c-1.167 0-2.37.227-3.365.865-.89.57-1.524 1.443-1.844 2.446-.664 2.082-.274 4.78 1.538 6.17.912.7 2.06 1.007 3.194 1.07 1.182.066 2.422-.089 3.481-.647 2.093-1.103 2.742-3.585 2.377-5.792-.172-1.048-.628-2.046-1.413-2.775-.819-.76-1.902-1.15-2.998-1.282a8.264 8.264 0 00-.97-.055"/><g transform="translate(72.872 .792)"><mask id="b" fill="#fff"><use xlink:href="#a"/></mask><path fill="#000" d="M5.927 12.91c-.992 0-1.713-.633-1.97-1.572-.268-.972-.218-2.288.456-3.095.59-.706 1.707-.877 2.493-.402.926.56 1.18 1.785 1.088 2.787-.105 1.149-.799 2.282-2.067 2.282zm1.944-4.15h-.04c0-.9-.189-1.842-.746-2.571-.497-.65-1.24-1.032-2.04-1.16-.821-.133-1.701-.052-2.445.338-.69.362-1.208.965-1.548 1.657C.619 7.904.454 8.9.42 9.871c-.035 1.029.057 2.088.403 3.063.266.746.697 1.446 1.336 1.927.637.48 1.424.685 2.215.674.936-.013 1.877-.306 2.528-1.007.691-.746.929-1.789.929-2.781h.04v3.588h3.327V.265H7.871V8.76z" mask="url(#b)"/></g><path fill="#000" d="M88.84 10.434c.11-1.1.705-2.187 1.933-2.204 1.25-.018 1.81 1.108 1.935 2.204H88.84zm1.965-4.67c-1.521 0-3.086.453-4.086 1.66-1.011 1.222-1.25 2.933-1.081 4.466.163 1.487.843 2.896 2.152 3.69 1.384.839 3.235.937 4.772.535 1.785-.466 3.086-1.82 3.374-3.656h-3.208c-.271 1.064-1.428 1.599-2.457 1.314-1.04-.287-1.401-1.409-1.451-2.377h7.116v-.36c0-3.328-1.904-5.272-5.131-5.272zM50.898 30.755l2.185-8.459h.04l2.185 8.459h-4.41zm-.741-8.74l-4.31 14.834h3.468l.902-3.448h5.773l.882 3.448h3.668l-4.27-14.834h-6.113zm16.112 12.408c-1.574 0-2.113-1.516-2.06-2.867.025-.683.192-1.422.686-1.925.45-.458 1.122-.616 1.744-.509.836.144 1.357.824 1.554 1.613h3.268c-.134-1.05-.54-2.07-1.289-2.83-.731-.744-1.716-1.166-2.735-1.33-2.046-.33-4.466.143-5.715 1.935-.589.846-.85 1.871-.897 2.89-.049 1.058.102 2.154.59 3.105.994 1.942 3.169 2.633 5.231 2.536 1.19-.057 2.394-.403 3.305-1.199.898-.786 1.382-1.913 1.53-3.082h-3.268c-.26 1.062-.942 1.663-1.944 1.663m11.67 0c-.992 0-1.713-.632-1.971-1.57-.267-.974-.217-2.289.458-3.096.59-.707 1.706-.877 2.492-.402.926.559 1.18 1.785 1.088 2.787-.105 1.148-.8 2.281-2.067 2.281zm1.944-4.149h-.04c0-.9-.189-1.842-.746-2.572-.497-.65-1.24-1.031-2.04-1.16-.82-.132-1.701-.052-2.445.339-.689.361-1.208.965-1.548 1.657-.433.88-.597 1.875-.631 2.847-.036 1.028.056 2.088.403 3.063.265.745.696 1.446 1.335 1.926.638.48 1.424.686 2.215.675.936-.013 1.878-.306 2.528-1.007.691-.746.93-1.789.93-2.781h.04v3.588h3.327V26.686h-3.328v3.588zm10.434 4.149c-.992 0-1.714-.632-1.97-1.57-.269-.974-.218-2.289.456-3.096.59-.707 1.706-.877 2.493-.402.926.559 1.18 1.785 1.088 2.787-.105 1.148-.8 2.281-2.067 2.281zm1.944-4.149h-.04c0-.9-.189-1.842-.746-2.572-.498-.65-1.24-1.031-2.04-1.16-.821-.132-1.701-.052-2.446.339-.688.361-1.207.965-1.547 1.657-.433.88-.598 1.875-.632 2.847-.035 1.028.057 2.088.403 3.063.266.745.697 1.446 1.336 1.926.637.48 1.424.686 2.215.675.936-.013 1.877-.306 2.527-1.007.692-.746.93-1.789.93-2.781h.04v3.588h3.327V22.015h-3.327v8.26zm8.096.882c.11-1.1.705-2.187 1.933-2.204 1.25-.018 1.81 1.107 1.936 2.204h-3.869zm1.965-4.67c-1.52 0-3.085.452-4.085 1.66-1.012 1.221-1.25 2.932-1.082 4.466.163 1.487.844 2.896 2.152 3.69 1.384.838 3.235.937 4.773.535 1.785-.467 3.085-1.82 3.373-3.656h-3.207c-.272 1.064-1.428 1.598-2.458 1.314-1.04-.287-1.4-1.41-1.45-2.377h7.115v-.36c0-3.328-1.904-5.273-5.131-5.273zm19.562-.001c-1.924 0-3.047 1.424-3.047 3.81h-.04c0-1.469-.544-3.041-2.025-3.596-1.317-.493-2.964-.174-3.78 1.025-.51.747-.67 1.682-.67 2.57h-.04v-3.608h-3.327v10.163h3.327v-5.553c0-.941.35-2.03 1.413-2.186.444-.065.937.021 1.278.33.377.34.496.866.496 1.355v6.054h3.328v-5.553c0-.941.35-2.03 1.412-2.186.443-.064.934.02 1.27.33.373.341.485.87.485 1.355v6.054h3.328v-6.214c0-2.606-1.264-4.15-3.408-4.15"/><g transform="translate(126.173 26.61)"><mask id="d" fill="#fff"><use xlink:href="#c"/></mask><path fill="#000" d="M7.254.076L5.45 10.019h-.04L3.606.076H.058l2.265 10.163h2.706l-.954 4.336h3.548L10.803.076z" mask="url(#d)"/></g><g transform="translate(0 .792)"><mask id="f" fill="#fff"><use xlink:href="#e"/></mask><path fill="#000" d="M35.513 21.812c0 3.496-1.1 6.945-3.126 9.793a17.094 17.094 0 01-7.985 6.11 17.011 17.011 0 01-10.442.39 17.053 17.053 0 01-8.433-5.518 16.966 16.966 0 01-3.83-9.457 17.55 17.55 0 01-.05-1.318v-19.9h33.866v19.9zM0 .264v21.548c0 3.849 1.215 7.645 3.453 10.777a18.745 18.745 0 008.745 6.674 18.664 18.664 0 0011.429.433 18.705 18.705 0 009.285-6.072 18.605 18.605 0 004.248-11.812V.264H0z" mask="url(#f)"/></g><path fill="#000" d="M24.974 25.46h-1.601v3.198h3.197V27a1.597 1.597 0 01-1.596-1.54m-12.759 0h-1.601v3.198h3.197V27a1.598 1.598 0 01-1.596-1.54"/><path fill="#000" d="M8.899 19.05a3.22 3.22 0 011.967-2.941 3.273 3.273 0 013.746.918 4.964 4.964 0 003.97 2.008c1.563 0 3.06-.763 3.982-2.026a3.271 3.271 0 013.771-.882 3.22 3.22 0 011.927 2.92v1.647c.01.804.322 1.531.82 2.088l-.034.034a3.312 3.312 0 00-1.856-.568h-4.449c-.871 0-1.664.335-2.257.883v-.004a2.491 2.491 0 00-1.904-.886h-.002a2.51 2.51 0 00-1.905.886v.004a3.319 3.319 0 00-2.257-.883h-4.45c-.688 0-1.325.211-1.856.568l-.034-.033a3.18 3.18 0 00.82-2.131V19.05zm19.958 9.615c0 .85-.69 1.539-1.54 1.539h-4.573c-.92 0-1.664-.745-1.664-1.664v-2.964c0-.92.745-1.664 1.664-1.664h4.45c.918 0 1.663.745 1.663 1.664v3.089zm-12.776-.125c0 .92-.745 1.664-1.663 1.664H9.843a1.54 1.54 0 01-1.54-1.54v-3.088c0-.92.746-1.664 1.665-1.664h4.45c.918 0 1.663.745 1.663 1.664v2.964zM7.47 23.316l.034.034a3.306 3.306 0 00-.864 2.226v3.089a3.202 3.202 0 003.203 3.203h4.575a3.328 3.328 0 003.327-3.328v-2.008h.005v-1.766c0-1.111 1.66-1.111 1.66 0v1.766h.005v2.008a3.328 3.328 0 003.328 3.328h4.574a3.202 3.202 0 003.203-3.203v-3.09c0-.857-.33-1.634-.863-2.224l.035-.035c.508.34 1.116.54 1.773.54h.033V19.05c0-.304-.012-.605-.033-.903v-5.505h-3.261V9.451h-3.18V7.94l-.012-.007v-1.7h-6.407v.001a12.915 12.915 0 00-12.14 8.358 12.766 12.766 0 00-.802 4.457v4.805h.032c.657 0 1.267-.2 1.775-.539z"/></g></svg>